<?xml version="1.0" encoding="utf-8"?>
<!-- Generator: Adobe Illustrator 16.0.0, SVG Export Plug-In . SVG Version: 6.00 Build 0)  -->
<!DOCTYPE svg PUBLIC "-//W3C//DTD SVG 1.1//EN" "http://www.w3.org/Graphics/SVG/1.1/DTD/svg11.dtd">
<svg version="1.1" id="Layer_1" xmlns="http://www.w3.org/2000/svg" xmlns:xlink="http://www.w3.org/1999/xlink" x="0px" y="0px"
	 width="100px" height="100px" viewBox="0 0 100 100" enable-background="new 0 0 100 100" xml:space="preserve">
<path d="M50.2,49.915c-0.134,0.059-0.268,0.118-0.4,0.17C49.903,49.989,50.044,49.93,50.2,49.915z"/>
<g>
	<path d="M50.001,17.674c-9.223,0-16.734,7.504-16.734,16.733c0,6.726,3.993,12.534,9.733,15.186v4.452
		c0,0.199,0.082,0.385,0.223,0.525l3.519,3.512l-2.704,2.703c-0.141,0.141-0.215,0.326-0.215,0.525c0,0.192,0.074,0.386,0.215,0.525
		l2.704,2.704l-2.704,2.696c-0.141,0.133-0.215,0.326-0.215,0.519c0,0.2,0.074,0.386,0.215,0.525l2.704,2.704l-2.704,2.711
		c-0.289,0.289-0.289,0.756,0,1.045l7.26,7.361c0.142,0.143,0.333,0.224,0.526,0.224c0.007,0,0.007,0,0.007,0
		c0.2,0,0.394-0.081,0.533-0.229l4.43-4.637c0.134-0.134,0.208-0.318,0.208-0.512V49.585c5.74-2.644,9.732-8.452,9.732-15.178
		C66.732,25.178,59.223,17.674,50.001,17.674z M55.52,76.65l-3.703,3.867l-6.208-6.297l2.711-2.711
		c0.134-0.141,0.215-0.326,0.215-0.525c0-0.192-0.081-0.385-0.215-0.519l-2.711-2.704l2.704-2.695
		c0.141-0.142,0.222-0.326,0.222-0.525c0-0.193-0.081-0.385-0.215-0.525l-2.711-2.705l2.711-2.703
		c0.134-0.141,0.215-0.332,0.215-0.524c0-0.2-0.081-0.386-0.222-0.526l-3.83-3.814v-3.548c1.727,0.615,3.585,0.94,5.52,0.94
		c0.288,0,0.577-0.007,0.859-0.021v22.065c0,0.407,0.332,0.741,0.74,0.741c0.406,0,0.739-0.334,0.739-0.741V50.963
		c1.097-0.154,2.163-0.414,3.179-0.778V76.65L55.52,76.65z M56.18,48.341c-0.135,0.059-0.269,0.119-0.4,0.17
		c-1.785,0.733-3.733,1.141-5.777,1.141c-8.408,0-15.253-6.837-15.253-15.245c0-8.407,6.845-15.251,15.253-15.251
		c8.406,0,15.252,6.844,15.252,15.251C65.253,40.615,61.52,45.971,56.18,48.341z"/>
	<path d="M50,30c-2.349,0-4.26,1.911-4.26,4.259c0,2.348,1.911,4.26,4.26,4.26c2.348,0,4.259-1.912,4.259-4.26
		C54.26,31.911,52.348,30,50,30z M50,37.037c-1.534,0-2.778-1.244-2.778-2.777s1.244-2.778,2.778-2.778
		c1.533,0,2.777,1.245,2.777,2.778S51.533,37.037,50,37.037z"/>
</g>
</svg>
