<?xml version="1.0" encoding="utf-8"?>
<!-- Generator: Adobe Illustrator 16.0.0, SVG Export Plug-In . SVG Version: 6.00 Build 0)  -->
<!DOCTYPE svg PUBLIC "-//W3C//DTD SVG 1.1//EN" "http://www.w3.org/Graphics/SVG/1.1/DTD/svg11.dtd">
<svg version="1.1" id="Layer_1" xmlns="http://www.w3.org/2000/svg" xmlns:xlink="http://www.w3.org/1999/xlink" x="0px" y="0px"
	 width="100px" height="100px" viewBox="0 0 100 100" enable-background="new 0 0 100 100" xml:space="preserve">
<path d="M49.997,15.665c2.239,0,4.054,1.814,4.054,4.051v50.009c2.287,1.385,3.828,3.864,3.828,6.729
	c0,4.357-3.525,7.885-7.878,7.885c-4.352,0-7.88-3.527-7.88-7.885c0-2.863,1.542-5.342,3.826-6.723V19.716
	C45.946,17.479,47.76,15.665,49.997,15.665 M49.997,12.963c-3.721,0-6.752,3.03-6.752,6.753v48.627
	c-2.421,1.992-3.826,4.929-3.826,8.109c0,5.836,4.747,10.585,10.582,10.585c5.837,0,10.582-4.749,10.582-10.585
	c0-3.185-1.406-6.117-3.826-8.113V19.716C56.756,15.993,53.723,12.963,49.997,12.963L49.997,12.963z"/>
<path d="M51.382,71.033V40.86c0-1.181-0.614-1.737-1.383-1.737c-0.762,0-1.379,0.556-1.379,1.737v30.173
	c-2.372,0.613-4.128,2.764-4.128,5.326c0,3.049,2.468,5.518,5.508,5.518c3.043,0,5.51-2.469,5.51-5.518
	C55.509,73.797,53.755,71.648,51.382,71.033z"/>
</svg>
